{"title":"The Cell &amp; BluRay Xtras (2000) 1080p","uid":12224842,"size":5433147725,"categoryP":"video","categoryS":"hd___movies","magnet":"?xt=urn:btih:30a4c8328d521477d1c5b60ce20e427994d8aded&amp;dn=The+Cell+%26amp%3B+BluRay+Xtras+%282000%29+1080p&amp;tr=udp%3A%2F%2Ftracker.openbittorrent.com%3A80&amp;tr=udp%3A%2F%2Fopen.demonii.com%3A1337&amp;tr=udp%3A%2F%2Ftracker.coppersurfer.tk%3A6969&amp;tr=udp%3A%2F%2Fexodus.desync.com%3A6969","seeders":5,"leechers":1,"uploader":"AlienMethod","files":23,"time":1439445810,"description":"x264/mp4\n6-Channel AAC@448kbps (audio 1)\n2-Channel AAC@160kbps (audio 2)\nEnglish Subs\nBluRay Xtras Included\n\n\n&quot;An FBI agent persuades a social worker, who is adept with a new\nexperimental technology, to enter the mind of a comatose serial killer in \norder to learn where he has hidden his latest kidnap victim.&quot;\n\n\nGeneral\nComplete name The Cell &amp; BluRay Xtras (2000) 1080p\nThe Cell (2000) 1080p.mp4\nFormat : MPEG-4\nFormat profile : Base Media\nCodec ID : isom\nFile size : 3.90 GiB\nDuration : 1h 49mn\nOverall bit rate mode : Variable\nOverall bit rate : 5 112 Kbps\nEncoded date : UTC 2015-08-13 01:05:20\nTagged date : UTC 2015-08-13 01:05:20\nWriting application : My MP4Box GUI 0.6.0.6 \n\nVideo\nID : 1\nFormat : AVC\nFormat/Info : Advanced Video Codec\nFormat profile : &lt;a class=&quot;__cf_email__&quot; href=&quot;/cdn-cgi/l/email-protection&quot; data-cfemail=&quot;cd85a4aaa58d81f9e3fd&quot;&gt;[email&amp;#160;protected]&lt;/a&gt;&lt;script data-cfhash='f9e31' type=&quot;text/javascript&quot;&gt;\n/* &lt;![CDATA[ */!function(){try{var t=&quot;currentScript&quot;in document?document.currentScript:function(){for(var t=document.getElementsByTagName(&quot;script&quot;),e=t.length;e--;)if(t[e].getAttribute(&quot;data-cfhash&quot;))return t[e]}();if(t&amp;&amp;t.previousSibling){var e,r,n,i,c=t.previousSibling,a=c.getAttribute(&quot;data-cfemail&quot;);if(a){for(e=&quot;&quot;,r=parseInt(a.substr(0,2),16),n=2;a.length-n;n+=2)i=parseInt(a.substr(n,2),16)^r,e+=String.fromCharCode(i);e=document.createTextNode(e),c.parentNode.replaceChild(e,c)}t.parentNode.removeChild(t);}}catch(u){}}()/* ]]&gt; */&lt;/script&gt;\nFormat settings, CABAC : Yes\nFormat settings, ReFrames : 4 frames\nCodec ID : avc1\nCodec ID/Info : Advanced Video Coding\nDuration : 1h 49mn\nBit rate : 4 481 Kbps\nMaximum bit rate : 55.5 Mbps\nWidth : 1 920 pixels\nHeight : 800 pixels\nDisplay aspect ratio : 2.40:1\nFrame rate mode : Constant\nFrame rate : 23.976 fps\nColor space : YUV\nChroma subsampling : 4:2:0\nBit depth : 8 bits\nScan type : Progressive\nBits/(Pixel*Frame) : 0.122\nStream size : 3.42 GiB (88%)\nTitle : The Cell(Encode).h264\nWriting library : x264 core 142 r2479 dd79a61\nEncoded date : UTC 2015-08-13 01:05:20\nTagged date : UTC 2015-08-13 01:05:50\n\nAudio #1\nID : 2\nFormat : AC-3\nFormat/Info : Audio Coding 3\nMode extension : CM (complete main)\nFormat settings, Endianness : Big\nCodec ID : ac-3\nDuration : 1h 49mn\nBit rate mode : Constant\nBit rate : 448 Kbps\nChannel(s) : 6 channels\nChannel positions : Front: L C R, Side: L R, LFE\nSampling rate : 48.0 KHz\nBit depth : 16 bits\nCompression mode : Lossy\nStream size : 350 MiB (9%)\nTitle : The Cell AC3.ac3\nEncoded date : UTC 2015-08-13 01:05:46\nTagged date : UTC 2015-08-13 01:05:50\n\nAudio #2\nID : 3\nFormat : AAC\nFormat/Info : Advanced Audio Codec\nFormat profile : LC\nCodec ID : 40\nDuration : 1h 49mn\nBit rate mode : Variable\nBit rate : 180 Kbps\nMaximum bit rate : 210 Kbps\nChannel(s) : 2 channels\nChannel positions : Front: L R\nSampling rate : 48.0 KHz\nCompression mode : Lossy\nStream size : 141 MiB (4%)\nTitle : The Cell AAC.m4a\nEncoded date : UTC 2015-08-13 01:05:48\nTagged date : UTC 2015-08-13 01:05:50","torrent":{"xt":"urn:btih:30a4c8328d521477d1c5b60ce20e427994d8aded","amp;dn":"The+Cell+%26amp%3B+BluRay+Xtras+%282000%29+1080p","amp;tr":["udp%3A%2F%2Ftracker.openbittorrent.com%3A80","udp%3A%2F%2Fopen.demonii.com%3A1337","udp%3A%2F%2Ftracker.coppersurfer.tk%3A6969","udp%3A%2F%2Fexodus.desync.com%3A6969"],"infoHash":"30a4c8328d521477d1c5b60ce20e427994d8aded","infoHashBuffer":{"type":"Buffer","data":[48,164,200,50,141,82,20,119,209,197,182,12,226,14,66,121,148,216,173,237]},"announce":[],"urlList":[]}}